<?xml version="1.0" standalone="no"?>
<!DOCTYPE svg PUBLIC "-//W3C//DTD SVG 20010904//EN"
 "http://www.w3.org/TR/2001/REC-SVG-20010904/DTD/svg10.dtd">
<svg version="1.0" xmlns="http://www.w3.org/2000/svg"
 width="1716.000000pt" height="302.000000pt" viewBox="0 0 1716.000000 302.000000"
 preserveAspectRatio="xMidYMid meet">

<g transform="translate(0.000000,302.000000) scale(0.100000,-0.100000)"
fill="#000000" stroke="none">
<path d="M12884 2926 c-89 -30 -204 -109 -204 -140 0 -7 -13 -32 -29 -57 -28
-42 -55 -116 -82 -224 -16 -63 -22 -966 -8 -1135 6 -63 14 -214 19 -335 12
-286 28 -441 60 -580 7 -27 14 -67 17 -87 8 -55 42 -83 114 -95 71 -11 157 4
199 35 22 17 25 25 22 73 -3 54 -6 285 -4 369 0 25 0 68 0 97 0 28 5 59 10 69
14 25 39 -31 93 -206 7 -25 31 -76 51 -114 21 -38 38 -70 38 -72 0 -2 11 -27
24 -56 13 -29 33 -74 43 -99 23 -51 59 -91 105 -115 32 -17 73 -16 167 4 127
28 139 117 52 382 -26 80 -54 165 -61 190 -7 25 -35 91 -61 146 -27 56 -49
109 -49 118 0 44 -116 247 -179 313 -12 12 -21 26 -21 32 0 5 35 42 79 83 77
72 118 124 158 203 32 62 37 85 74 340 14 95 14 299 0 352 -5 21 -15 63 -21
93 -26 121 -68 218 -128 298 -49 66 -74 85 -137 107 -66 24 -282 30 -341 11z
m138 -213 c37 -44 55 -89 88 -211 6 -25 11 -119 11 -220 0 -168 -9 -240 -39
-337 -26 -83 -85 -163 -101 -136 -9 14 -24 171 -26 271 -1 36 -9 139 -19 229
-16 142 -17 178 -7 265 7 55 19 113 27 128 17 32 44 36 66 11z"/>
<path d="M9530 2864 c-24 -8 -50 -20 -56 -26 -10 -10 -14 -180 -18 -693 -3
-393 -10 -714 -16 -760 -6 -44 -10 -158 -8 -252 1 -95 -2 -176 -6 -180 -4 -4
-32 -13 -63 -19 -54 -11 -55 -10 -65 15 -10 28 -22 120 -38 306 -5 66 -17 174
-25 240 -9 78 -15 220 -16 404 0 156 -5 311 -10 345 -5 33 -13 127 -19 208 -8
118 -13 153 -30 180 -11 18 -20 41 -20 50 0 9 -13 26 -29 37 -57 41 -250 22
-297 -30 -16 -18 -17 -28 -5 -142 10 -103 10 -160 -4 -362 -36 -538 -51 -1387
-27 -1570 7 -55 17 -134 21 -176 9 -91 34 -146 80 -176 48 -33 165 -33 206 -1
17 13 51 25 87 30 75 10 136 49 154 98 16 45 17 111 2 223 -10 84 -10 91 7
104 11 7 40 13 66 13 53 0 59 -9 59 -92 0 -82 48 -248 83 -286 30 -32 89 -45
177 -37 81 7 129 21 146 44 7 9 12 84 12 208 1 128 6 201 14 216 17 33 17 261
-1 315 -12 37 -13 49 -2 75 9 21 16 112 21 262 4 127 14 255 20 285 9 40 11
94 5 195 -5 77 -9 221 -10 320 -2 169 -4 184 -29 250 -20 51 -29 96 -33 165
-6 96 -27 165 -60 192 -46 38 -185 49 -273 22z"/>
<path d="M5814 2805 c-17 -8 -35 -20 -41 -27 -15 -18 -24 -201 -29 -583 -2
-176 -9 -353 -14 -393 -6 -40 -10 -102 -10 -138 0 -106 -29 -74 -50 56 -6 41
-16 85 -21 98 -5 13 -9 30 -9 38 0 8 -9 34 -20 56 -11 23 -20 58 -20 78 0 40
-27 119 -58 170 -13 20 -22 52 -22 73 0 24 -15 70 -40 122 -22 46 -40 88 -40
94 0 14 -36 77 -67 118 -14 18 -34 48 -43 66 -9 18 -30 39 -46 47 -39 20 -244
27 -297 9 -61 -20 -67 -45 -67 -295 0 -117 -8 -314 -17 -436 -18 -217 -23
-652 -12 -943 2 -66 0 -180 -5 -253 -10 -147 -3 -190 42 -250 51 -70 183 -94
272 -49 75 39 75 36 78 435 2 211 7 352 13 352 5 0 9 -9 9 -20 0 -10 4 -29 9
-42 5 -13 14 -42 20 -65 25 -96 35 -132 61 -213 29 -92 80 -253 107 -340 27
-88 117 -170 186 -170 11 0 34 4 51 10 163 52 189 64 249 119 52 48 57 74 58
312 0 120 4 231 9 246 13 39 22 368 24 933 2 443 0 489 -16 535 -10 27 -18 63
-18 80 -1 60 -29 149 -52 167 -28 21 -128 23 -174 3z"/>
<path d="M7154 2805 c-17 -8 -35 -20 -41 -27 -15 -18 -24 -201 -29 -583 -2
-176 -9 -353 -14 -393 -6 -40 -10 -102 -10 -138 0 -106 -29 -74 -50 56 -6 41
-16 85 -21 98 -5 13 -9 30 -9 38 0 8 -9 34 -20 56 -11 23 -20 58 -20 78 0 40
-27 119 -58 170 -13 20 -22 52 -22 73 0 24 -15 70 -40 122 -22 46 -40 88 -40
94 0 14 -36 77 -67 118 -14 18 -34 48 -43 66 -9 18 -30 39 -46 47 -39 20 -244
27 -297 9 -61 -20 -67 -45 -67 -295 0 -117 -8 -314 -17 -436 -18 -217 -23
-652 -12 -943 2 -66 0 -180 -5 -253 -10 -147 -3 -190 42 -250 51 -70 183 -94
272 -49 75 39 75 36 78 435 2 211 7 352 13 352 5 0 9 -9 9 -20 0 -10 4 -29 9
-42 5 -13 14 -42 20 -65 25 -96 35 -132 61 -213 29 -92 80 -253 107 -340 27
-88 117 -170 186 -170 11 0 34 4 51 10 163 52 189 64 249 119 52 48 57 74 58
312 0 120 4 231 9 246 13 39 22 368 24 933 2 443 0 489 -16 535 -10 27 -18 63
-18 80 -1 60 -29 149 -52 167 -28 21 -128 23 -174 3z"/>
<path d="M11850 2785 c-135 -29 -274 -127 -328 -230 -24 -47 -26 -57 -24 -180
2 -71 7 -155 13 -185 27 -144 32 -169 51 -230 20 -69 104 -249 144 -309 12
-20 30 -58 39 -86 9 -27 34 -86 55 -130 21 -44 43 -100 50 -125 7 -25 22 -70
35 -100 13 -30 28 -82 33 -115 6 -33 18 -98 27 -145 28 -141 22 -390 -9 -390
-16 0 -29 26 -60 120 -70 215 -149 311 -245 296 -82 -12 -107 -19 -129 -39
-38 -35 -54 -135 -31 -194 6 -15 19 -48 29 -73 10 -25 21 -56 24 -70 3 -14 22
-52 42 -85 20 -33 45 -76 56 -95 63 -111 160 -160 319 -160 133 0 159 15 256
146 88 119 118 190 133 309 14 111 14 351 0 405 -5 19 -14 64 -20 100 -7 36
-15 76 -20 90 -4 14 -13 45 -20 70 -7 25 -16 56 -20 70 -4 14 -13 50 -20 80
-7 30 -16 60 -20 65 -4 6 -17 37 -30 70 -13 33 -62 137 -110 230 -48 94 -101
197 -118 230 -55 108 -107 314 -84 337 15 15 52 -10 113 -75 47 -50 66 -85 90
-167 24 -87 47 -117 108 -142 76 -31 208 -32 249 -1 15 11 29 29 31 39 2 10
-2 75 -9 144 -14 143 -43 219 -125 327 -134 179 -282 241 -475 198z"/>
<path d="M700 2748 c-68 -14 -172 -49 -185 -61 -6 -7 -23 -32 -37 -57 -15 -25
-37 -56 -50 -70 -63 -67 -108 -175 -108 -259 0 -55 18 -201 32 -256 33 -135
120 -331 192 -430 20 -27 36 -58 36 -67 0 -10 12 -48 26 -85 14 -38 30 -84 35
-103 21 -79 39 -264 39 -409 0 -150 -1 -154 -30 -215 -40 -82 -63 -111 -84
-103 -17 7 -53 78 -67 132 -50 203 -68 231 -147 229 -144 -5 -219 -112 -182
-259 54 -210 139 -327 298 -407 90 -46 209 -36 299 24 23 15 55 28 71 28 18 0
50 15 85 40 30 22 60 40 64 40 11 0 53 43 53 54 0 5 19 36 41 69 51 75 69 117
80 187 4 30 18 105 29 165 37 196 37 206 -2 400 -39 197 -103 363 -165 430
-10 11 -34 40 -53 65 -19 25 -37 47 -40 50 -11 9 -88 125 -114 172 -56 101
-69 184 -42 283 26 99 56 148 142 231 47 46 84 90 84 101 0 72 -148 113 -300
81z"/>
<path d="M16098 2740 c-54 -29 -78 -64 -69 -98 5 -15 5 -50 0 -77 -5 -28 -16
-115 -25 -195 -8 -80 -22 -197 -29 -260 -9 -84 -13 -306 -14 -802 -2 -853 -6
-827 131 -891 89 -42 190 -57 373 -57 119 1 136 3 203 30 117 46 132 71 92
150 -23 45 -30 51 -79 61 -74 16 -110 27 -148 45 l-38 19 -3 113 c-4 134 -4
206 5 822 9 638 9 665 -5 820 -20 215 -27 252 -58 276 -41 34 -121 56 -214 60
-71 4 -91 1 -122 -16z"/>
<path d="M1727 2720 c-22 -11 -49 -30 -60 -42 -12 -13 -38 -34 -58 -46 -45
-27 -69 -62 -69 -99 0 -15 -7 -60 -15 -98 -9 -39 -20 -92 -26 -120 -6 -27 -15
-68 -20 -90 -8 -38 -25 -136 -49 -285 -6 -36 -15 -90 -20 -120 -5 -30 -14 -91
-20 -135 -6 -44 -15 -100 -20 -125 -5 -25 -14 -79 -20 -120 -6 -41 -16 -94
-21 -117 -5 -23 -9 -93 -9 -156 0 -64 -9 -173 -20 -247 -25 -164 -27 -377 -5
-420 23 -44 76 -79 139 -92 53 -11 60 -11 100 11 50 26 61 43 77 126 6 33 20
78 31 99 14 27 19 56 18 95 -3 80 -3 78 3 160 8 97 14 103 102 91 39 -6 75
-12 81 -14 7 -3 17 -44 23 -93 7 -48 16 -102 22 -119 5 -17 9 -39 9 -50 0 -11
9 -44 20 -74 11 -30 20 -60 20 -67 0 -14 50 -128 80 -183 25 -46 82 -69 175
-69 95 -1 166 19 183 50 18 32 7 401 -13 474 -8 28 -17 110 -20 183 -3 74 -10
142 -15 153 -7 12 -7 33 1 63 6 25 9 64 6 88 -13 110 -47 327 -57 363 -6 22
-18 83 -26 135 -9 52 -19 100 -24 105 -5 6 -7 20 -4 31 5 20 -5 86 -25 154 -5
19 -17 67 -26 105 -9 39 -21 78 -27 89 -5 10 -17 33 -27 50 -9 17 -22 52 -29
78 -23 89 -134 253 -193 283 -39 21 -126 18 -172 -5z m76 -782 c3 -18 12 -76
20 -128 18 -107 22 -248 16 -460 l-5 -145 -59 2 c-88 3 -88 3 -79 79 3 37 7
112 9 168 1 55 7 128 14 161 13 66 27 152 41 260 13 108 32 135 43 63z"/>
<path d="M2503 2720 c-17 -10 -36 -27 -41 -37 -11 -19 -2 -188 33 -663 3 -41
10 -149 15 -240 6 -91 15 -192 20 -225 5 -33 14 -109 20 -170 11 -106 30 -222
50 -315 6 -25 14 -65 20 -90 11 -55 25 -112 40 -165 6 -22 18 -78 26 -125 11
-62 29 -111 64 -182 88 -174 134 -206 257 -177 241 56 289 82 331 179 18 42
25 83 53 293 10 75 16 103 39 179 4 14 4 48 -2 75 -6 30 -5 61 1 83 19 68 33
156 35 230 3 68 9 106 38 225 5 22 13 101 18 175 4 74 16 196 25 270 10 82 14
160 10 200 -11 111 -9 223 5 270 7 25 14 77 17 116 4 68 3 72 -23 93 -33 26
-123 29 -177 6 -94 -39 -122 -105 -137 -315 -4 -69 -18 -186 -29 -260 -12 -74
-25 -165 -31 -201 -5 -36 -12 -72 -15 -80 -3 -8 -12 -86 -20 -174 -27 -272
-38 -333 -56 -303 -5 7 -9 39 -9 71 0 150 -63 535 -96 588 -4 8 -11 68 -15
135 -4 66 -12 138 -17 160 -6 21 -15 64 -22 94 -29 142 -60 240 -81 259 -29
24 -114 40 -219 41 -77 0 -101 -4 -127 -20z"/>
<path d="M4087 2720 c-22 -11 -49 -30 -60 -42 -12 -13 -38 -34 -58 -46 -45
-27 -69 -62 -69 -99 0 -15 -7 -60 -15 -98 -9 -39 -20 -92 -26 -120 -6 -27 -15
-68 -20 -90 -8 -38 -25 -136 -49 -285 -6 -36 -15 -90 -20 -120 -5 -30 -14 -91
-20 -135 -6 -44 -15 -100 -20 -125 -5 -25 -14 -79 -20 -120 -6 -41 -16 -94
-21 -117 -5 -23 -9 -93 -9 -156 0 -64 -9 -173 -20 -247 -25 -164 -27 -377 -5
-420 23 -44 76 -79 139 -92 53 -11 60 -11 100 11 50 26 61 43 77 126 6 33 20
78 31 99 14 27 19 56 18 95 -3 80 -3 78 3 160 8 97 14 103 102 91 39 -6 75
-12 81 -14 7 -3 17 -44 23 -93 7 -48 16 -102 22 -119 5 -17 9 -39 9 -50 0 -11
9 -44 20 -74 11 -30 20 -60 20 -67 0 -14 50 -128 80 -183 25 -46 82 -69 175
-69 95 -1 166 19 183 50 18 32 7 401 -13 474 -8 28 -17 110 -20 183 -3 74 -10
142 -15 153 -7 12 -7 33 1 63 6 25 9 64 6 88 -13 110 -47 327 -57 363 -6 22
-18 83 -26 135 -9 52 -19 100 -24 105 -5 6 -7 20 -4 31 5 20 -5 86 -25 154 -5
19 -17 67 -26 105 -9 39 -21 78 -27 89 -5 10 -17 33 -27 50 -9 17 -22 52 -29
78 -23 89 -134 253 -193 283 -39 21 -126 18 -172 -5z m76 -782 c3 -18 12 -76
20 -128 18 -107 22 -248 16 -460 l-5 -145 -59 2 c-88 3 -88 3 -79 79 3 37 7
112 9 168 1 55 7 128 14 161 13 66 27 152 41 260 13 108 32 135 43 63z"/>
<path d="M7987 2720 c-22 -11 -49 -30 -60 -42 -12 -13 -38 -34 -58 -46 -45
-27 -69 -62 -69 -99 0 -15 -7 -60 -15 -98 -9 -39 -20 -92 -26 -120 -6 -27 -15
-68 -20 -90 -8 -38 -25 -136 -49 -285 -6 -36 -15 -90 -20 -120 -5 -30 -14 -91
-20 -135 -6 -44 -15 -100 -20 -125 -5 -25 -14 -79 -20 -120 -6 -41 -16 -94
-21 -117 -5 -23 -9 -93 -9 -156 0 -64 -9 -173 -20 -247 -25 -164 -27 -377 -5
-420 23 -44 76 -79 139 -92 53 -11 60 -11 100 11 50 26 61 43 77 126 6 33 20
78 31 99 14 27 19 56 18 95 -3 80 -3 78 3 160 8 97 14 103 102 91 39 -6 75
-12 81 -14 7 -3 17 -44 23 -93 7 -48 16 -102 22 -119 5 -17 9 -39 9 -50 0 -11
9 -44 20 -74 11 -30 20 -60 20 -67 0 -14 50 -128 80 -183 25 -46 82 -69 175
-69 95 -1 166 19 183 50 18 32 7 401 -13 474 -8 28 -17 110 -20 183 -3 74 -10
142 -15 153 -7 12 -7 33 1 63 6 25 9 64 6 88 -13 110 -47 327 -57 363 -6 22
-18 83 -26 135 -9 52 -19 100 -24 105 -5 6 -7 20 -4 31 5 20 -5 86 -25 154 -5
19 -17 67 -26 105 -9 39 -21 78 -27 89 -5 10 -17 33 -27 50 -9 17 -22 52 -29
78 -23 89 -134 253 -193 283 -39 21 -126 18 -172 -5z m76 -782 c3 -18 12 -76
20 -128 18 -107 22 -248 16 -460 l-5 -145 -59 2 c-88 3 -88 3 -79 79 3 37 7
112 9 168 1 55 7 128 14 161 13 66 27 152 41 260 13 108 32 135 43 63z"/>
<path d="M10935 2702 l-50 -38 -6 -159 c-4 -88 -13 -200 -20 -250 -19 -129
-16 -518 6 -725 15 -143 16 -181 5 -290 -7 -69 -10 -159 -6 -200 3 -41 10
-187 15 -325 14 -345 21 -375 96 -401 48 -17 196 -18 279 -3 85 15 124 34 131
61 3 13 0 100 -6 193 -5 94 -12 239 -14 324 -2 85 -9 201 -15 257 -6 63 -11
326 -11 674 0 314 -4 581 -8 593 -23 60 -40 128 -46 177 -4 35 -14 66 -28 83
-31 39 -117 67 -202 67 -66 0 -73 -3 -120 -38z"/>
<path d="M14127 2720 c-22 -11 -49 -30 -60 -42 -12 -13 -38 -34 -58 -46 -45
-27 -69 -62 -69 -99 0 -15 -7 -60 -15 -98 -9 -39 -20 -92 -26 -120 -6 -27 -15
-68 -20 -90 -8 -38 -25 -136 -49 -285 -6 -36 -15 -90 -20 -120 -5 -30 -14 -91
-20 -135 -6 -44 -15 -100 -20 -125 -5 -25 -14 -79 -20 -120 -6 -41 -16 -94
-21 -117 -5 -23 -9 -93 -9 -156 0 -64 -9 -173 -20 -247 -25 -164 -27 -377 -5
-420 23 -44 76 -79 139 -92 53 -11 60 -11 100 11 50 26 61 43 77 126 6 33 20
78 31 99 14 27 19 56 18 95 -3 80 -3 78 3 160 8 97 14 103 102 91 39 -6 75
-12 81 -14 7 -3 17 -44 23 -93 7 -48 16 -102 22 -119 5 -17 9 -39 9 -50 0 -11
9 -44 20 -74 11 -30 20 -60 20 -67 0 -14 50 -128 80 -183 25 -46 82 -69 175
-69 95 -1 166 19 183 50 18 32 7 401 -13 474 -8 28 -17 110 -20 183 -3 74 -10
142 -15 153 -7 12 -7 33 1 63 6 25 9 64 6 88 -13 110 -47 327 -57 363 -6 22
-18 83 -26 135 -9 52 -19 100 -24 105 -5 6 -7 20 -4 31 5 20 -5 86 -25 154 -5
19 -17 67 -26 105 -9 39 -21 78 -27 89 -5 10 -17 33 -27 50 -9 17 -22 52 -29
78 -23 89 -134 253 -193 283 -39 21 -126 18 -172 -5z m76 -782 c3 -18 12 -76
20 -128 18 -107 22 -248 16 -460 l-5 -145 -59 2 c-88 3 -88 3 -79 79 3 37 7
112 9 168 1 55 7 128 14 161 13 66 27 152 41 260 13 108 32 135 43 63z"/>
<path d="M14998 2694 c-77 -38 -78 -43 -77 -265 1 -107 5 -201 9 -209 4 -8 4
-55 -1 -105 -5 -49 -8 -247 -8 -440 1 -192 1 -442 0 -555 -3 -221 17 -471 49
-615 5 -22 11 -52 15 -67 5 -29 34 -46 111 -67 52 -14 365 -15 436 -1 118 23
159 41 216 94 23 21 32 39 32 61 0 53 -23 59 -216 57 -137 -2 -173 0 -183 11
-6 8 -11 45 -11 83 1 38 -4 175 -10 304 -13 286 -13 284 -6 499 4 124 9 178
18 187 18 16 119 50 198 66 49 10 72 20 97 46 39 39 42 70 9 109 -23 27 -45
37 -146 66 -19 5 -45 13 -58 18 -13 5 -47 9 -75 9 -29 0 -58 5 -65 12 -15 15
-16 83 0 111 7 14 11 61 9 126 -3 148 -3 148 146 153 155 6 211 25 281 95 68
67 71 104 14 161 -37 37 -42 39 -128 47 -49 4 -148 9 -220 11 -72 1 -166 7
-208 13 -115 16 -174 12 -228 -15z"/>
</g>
</svg>
